<svg xmlns="http://www.w3.org/2000/svg" version="1.1" xmlns:xlink="http://www.w3.org/1999/xlink" viewBox="0 0 9.017578125 9.721190544906799"><g transform="matrix(0.8571428571428571,0,0,0.8571428571428571,1.2882254464285716,6.402414797279527)"><rect width="11.224120232406799" height="11.224120232406799" x="-1.8547358974533994" y="-7.410849561833881" fill="#4e888f"></rect><g transform="matrix(1,0,0,1,0,0)" clip-path="url(#SvgjsClipPath30888)"><g clip-path="url(#SvgjsClipPath30883a3287870-3c19-4fe8-adde-c5ce032efcac)"><path d=" M 5.252609570266002 -5.907919874333881 C 5.731049614110673 -5.910891136128733 6.174423281790993 -5.657350921289128 6.414505138518716 -5.243497799975643 C 6.654586995246438 -4.829644678662159 6.654586995246438 -4.318897334338948 6.414505138518716 -3.905044213025464 C 6.174423281790993 -3.4911910917119804 5.731049614110673 -3.2376508768723746 5.252609570266002 -3.2406221386672263 L 4.167317667098321 -3.2406221386672263 C 4.030281735025406 -3.2406221386672263 3.91919216279117 -3.351711710901463 3.91919216279117 -3.488747642974378 L 3.91919216279117 -4.574039546142059 C 3.919078523726956 -5.310587601363355 4.516061519970205 -5.907777851385869 5.2526095702656805 -5.907919874333881 Z M 4.363544615467265 -3.4830897231000435 C 4.475156177887348 -3.483089723100044 4.565635226251427 -3.5735687714641227 4.565635226251427 -3.685180333884206 C 4.565635226251427 -3.796791896304289 4.475156177887348 -3.8872709446683675 4.363544615467265 -3.8872709446683675 C 4.251933053047182 -3.8872709446683675 4.161454004683103 -3.7967918963042893 4.161454004683103 -3.685180333884206 C 4.161454003884434 -3.6315825744738857 4.1827456313382125 -3.5801800365435215 4.220644972038281 -3.5422806947139636 C 4.258544312738351 -3.5043813528844066 4.309946850034175 -3.4830897238987126 4.363544612455881 -3.4830897231000435 Z" fill="#ffffff" transform="matrix(1,0,0,1,0,0)" fill-rule="evenodd"></path></g><g clip-path="url(#SvgjsClipPath30883a3287870-3c19-4fe8-adde-c5ce032efcac)"><path d=" M 2.2620388672339975 -5.907919874333881 C 1.7835988233893265 -5.910891136128733 1.3402251557090064 -5.657350921289128 1.1001432989812838 -5.243497799975643 C 0.8600614422535614 -4.829644678662159 0.8600614422535614 -4.318897334338947 1.1001432989812843 -3.905044213025464 C 1.3402251557090068 -3.49119109171198 1.7835988233893276 -3.2376508768723746 2.262038867233999 -3.2406221386672263 L 3.347330770401678 -3.2406221386672263 C 3.484366702474593 -3.2406221386672263 3.595456274708829 -3.351711710901463 3.595456274708829 -3.488747642974378 L 3.595456274708829 -4.574039546142059 C 3.595524488529716 -4.927747309026955 3.455076523328016 -5.266994468804553 3.2050107722443104 -5.517147034876215 C 2.9549450211606056 -5.767299600947878 2.6157466324859238 -5.907865313221404 2.2620388672327696 -5.907919874333881 Z M 3.1511038220327348 -3.4830897231000435 C 3.232846521629978 -3.483068918136377 3.3065518761142814 -3.532293521783428 3.3378478699818364 -3.6078079584040745 C 3.3691438638493905 -3.683322395024721 3.3518665473678855 -3.7702536047198816 3.294073085367767 -3.8280617799231567 C 3.236279623367649 -3.8858699551264317 3.1493528144311433 -3.90316939939445 3.0738304138593047 -3.871892628746597 C 2.9983080132874664 -3.8406158580987433 2.94906464953141 -3.7669230361290644 2.9490646468837944 -3.685180333884206 C 2.949064643165565 -3.573588855431908 3.039512346818827 -3.4831181252091676 3.1511038218447136 -3.4830897231000915 Z" fill="#ffffff" transform="matrix(1,0,0,1,0,0)" fill-rule="evenodd"></path></g><g clip-path="url(#SvgjsClipPath30883a3287870-3c19-4fe8-adde-c5ce032efcac)"><path d=" M 5.252609570266002 -0.25 C 5.731049614110673 -0.24702873820514792 6.174423281790993 -0.5005689530447546 6.414505138518716 -0.9144220743582387 C 6.654586995246438 -1.328275195671723 6.654586995246438 -1.8390225399949331 6.414505138518716 -2.2528756613084178 C 6.174423281790993 -2.6667287826219015 5.731049614110673 -2.920268997461507 5.252609570266002 -2.917297735666655 L 4.167317667098321 -2.917297735666655 C 4.030281735025406 -2.917297735666655 3.91919216279117 -2.806208163432419 3.91919216279117 -2.669172231359504 L 3.91919216279117 -1.5838803281918228 C 3.919078523726956 -0.8473322729705277 4.516061519970204 -0.2501420229480136 5.25260957026568 -0.25 Z M 4.363544615467265 -2.2707003653007356 C 4.445287317712124 -2.2707003679483506 4.518980139681803 -2.3199437317044076 4.550256910329656 -2.3954661322762463 C 4.581533680977509 -2.4709885328480845 4.564234236709492 -2.557915341784591 4.506426061506216 -2.615708803784709 C 4.448617886302941 -2.673502265784827 4.36168667660778 -2.6907795822663316 4.286172239987133 -2.6594835883987775 C 4.210657803366487 -2.6281875945312225 4.161433199719436 -2.55448224004692 4.161454004683103 -2.472739540449677 C 4.161454002897383 -2.4191465068096125 4.182747272459114 -2.3677492556032034 4.220648092973985 -2.3298580814483234 C 4.2585489134888554 -2.2919669072934434 4.309951583194648 -2.2706867215019515 4.363544615282623 -2.270700365300689 Z" fill="#ffffff" transform="matrix(1,0,0,1,0,0)" fill-rule="evenodd"></path></g><g clip-path="url(#SvgjsClipPath30883a3287870-3c19-4fe8-adde-c5ce032efcac)"><path d=" M 2.2620388672339975 -0.25 C 1.7835988233893265 -0.24702873820514792 1.3402251557090064 -0.5005689530447546 1.1001432989812838 -0.9144220743582387 C 0.8600614422535614 -1.328275195671723 0.8600614422535614 -1.839022539994934 1.1001432989812843 -2.2528756613084178 C 1.3402251557090068 -2.666728782621902 1.7835988233893276 -2.9202689974615073 2.262038867233999 -2.917297735666655 L 3.347330770401678 -2.917297735666655 C 3.484366702474593 -2.917297735666655 3.595456274708829 -2.806208163432419 3.595456274708829 -2.669172231359504 L 3.595456274708829 -1.5838803281918228 C 3.5955244885299193 -1.2301725653076945 3.455076523328415 -0.8909254055300151 3.2050107722448535 -0.6407728394582088 C 2.954945021161292 -0.3906202733864035 2.615746632486691 -0.2500545611126812 2.2620388672335374 -0.25 Z M 3.1511038220327348 -2.2707003653007356 C 3.232851201828083 -2.27067956179297 3.3065598094837743 -2.3199097321561335 3.3378527880980524 -2.3954304844407686 C 3.36914576671233 -2.470951236725403 3.351859020892895 -2.557886482371235 3.294054892423594 -2.615690610840535 C 3.2362507639542937 -2.6734947393098363 3.149315518308462 -2.6907814851292713 3.0737947660238274 -2.6594885065149936 C 2.998274013739193 -2.628195527900716 2.949043843376028 -2.554486920245024 2.9490646468837944 -2.472739540449676 C 2.9490930401647746 -2.361168148144999 3.039532429727956 -2.270728758581772 3.1511038220326832 -2.2707003653007356 Z" fill="#ffffff" transform="matrix(1,0,0,1,0,0)" fill-rule="evenodd"></path></g></g><g><path d=" M 0.89208984375 0.6972656249999998 L 1.121337890625 0.6972656249999998 L 1.008544921875 0.2709960937499998 L 0.89208984375 0.6972656249999998 M 0.703125 1.1667480468749998 Q 0.64892578125 1.1667480468749998 0.60791015625 1.1528320312499998 Q 0.56689453125 1.1389160156249998 0.5394287109375 1.1151123046874998 Q 0.511962890625 1.0913085937499998 0.498046875 1.0601806640624998 Q 0.484130859375 1.0290527343749998 0.484130859375 0.9938964843749998 Q 0.484130859375 0.9763183593749998 0.4921875 0.9686279296874998 Q 0.500244140625 0.9609374999999998 0.513427734375 0.9565429687499998 Q 0.526611328125 0.9521484374999998 0.5430908203125 0.9484863281249998 Q 0.5595703125 0.9448242187499998 0.576416015625 0.9353027343749998 Q 0.59326171875 0.9257812499999998 0.608642578125 0.9078369140624998 Q 0.6240234375 0.8898925781249998 0.635009765625 0.8562011718749998 L 0.815185546875 0.3068847656249998 Q 0.8203125 0.2915039062499998 0.8228759765625 0.2797851562499998 Q 0.825439453125 0.2680664062499998 0.825439453125 0.2592773437499998 Q 0.825439453125 0.23657226562499978 0.81298828125 0.22851562499999978 Q 0.800537109375 0.22045898437499978 0.7855224609375 0.21606445312499978 Q 0.7705078125 0.21166992187499978 0.758056640625 0.20544433593749978 Q 0.74560546875 0.19921874999999978 0.74560546875 0.18017578124999978 Q 0.74560546875 0.17504882812499978 0.746337890625 0.17211914062499978 Q 0.753662109375 0.12158203124999978 0.78662109375 0.08825683593749978 Q 0.819580078125 0.05493164062499978 0.8741455078125 0.03552246093749978 Q 0.9287109375 0.016113281249999778 1.002685546875 0.008056640624999778 Q 1.07666015625 -2.220446049250313e-16 1.166015625 -2.220446049250313e-16 Q 1.241455078125 -2.220446049250313e-16 1.3106689453125 0.005493164062499778 Q 1.3798828125 0.010986328124999778 1.435546875 0.029296874999999778 Q 1.4912109375 0.04760742187499978 1.528564453125 0.08129882812499978 Q 1.56591796875 0.11499023437499978 1.57763671875 0.17211914062499978 Q 1.5791015625 0.17944335937499978 1.5791015625 0.18237304687499978 Q 1.5791015625 0.19482421874999978 1.5721435546875 0.20104980468749978 Q 1.565185546875 0.20727539062499978 1.554931640625 0.21093749999999978 Q 1.544677734375 0.21459960937499978 1.532958984375 0.21716308593749978 Q 1.521240234375 0.21972656249999978 1.510986328125 0.22485351562499978 Q 1.500732421875 0.22998046874999978 1.4937744140625 0.23986816406249978 Q 1.48681640625 0.24975585937499978 1.48681640625 0.2673339843749998 Q 1.48681640625 0.2827148437499998 1.493408203125 0.3068847656249998 L 1.6552734375 0.8562011718749998 Q 1.664794921875 0.8891601562499998 1.679443359375 0.9074707031249998 Q 1.694091796875 0.9257812499999998 1.7105712890625 0.9353027343749998 Q 1.72705078125 0.9448242187499998 1.7435302734375 0.9484863281249998 Q 1.760009765625 0.9521484374999998 1.773193359375 0.9565429687499998 Q 1.786376953125 0.9609374999999998 1.79443359375 0.9686279296874998 Q 1.802490234375 0.9763183593749998 1.802490234375 0.9938964843749998 Q 1.802490234375 1.0854492187499998 1.7080078125 1.1260986328124998 Q 1.613525390625 1.1667480468749998 1.434814453125 1.1667480468749998 Q 1.348388671875 1.1667480468749998 1.2813720703125 1.1568603515624998 Q 1.21435546875 1.1469726562499998 1.168212890625 1.1260986328124998 Q 1.1220703125 1.1052246093749998 1.0982666015625 1.0722656249999998 Q 1.074462890625 1.0393066406249998 1.074462890625 0.9938964843749998 Q 1.074462890625 0.9785156249999998 1.0814208984375 0.9708251953124998 Q 1.08837890625 0.9631347656249998 1.0986328125 0.9591064453124998 Q 1.10888671875 0.9550781249999998 1.121337890625 0.9521484374999998 Q 1.1337890625 0.9492187499999998 1.14404296875 0.9437255859374998 Q 1.154296875 0.9382324218749998 1.1612548828125 0.9276123046874998 Q 1.168212890625 0.9169921874999998 1.168212890625 0.8972167968749998 Q 1.168212890625 0.8803710937499998 1.1630859375 0.8591308593749998 L 1.1513671875 0.8085937499999998 L 0.85400390625 0.8085937499999998 L 0.83642578125 0.8591308593749998 Q 0.826904296875 0.8869628906249998 0.826904296875 0.9045410156249998 Q 0.826904296875 0.9213867187499998 0.8338623046875 0.9305419921874998 Q 0.8408203125 0.9396972656249998 0.85107421875 0.9444580078124998 Q 0.861328125 0.9492187499999998 0.873779296875 0.9521484374999998 Q 0.88623046875 0.9550781249999998 0.896484375 0.9591064453124998 Q 0.90673828125 0.9631347656249998 0.9136962890625 0.9711914062499998 Q 0.920654296875 0.9792480468749998 0.920654296875 0.9938964843749998 Q 0.920654296875 1.0290527343749998 0.90673828125 1.0601806640624998 Q 0.892822265625 1.0913085937499998 0.8653564453125 1.1151123046874998 Q 0.837890625 1.1389160156249998 0.7972412109375 1.1528320312499998 Q 0.756591796875 1.1667480468749998 0.703125 1.1667480468749998 M 1.8186035156250002 0.7148437499999998 Q 1.8186035156250002 0.6767578124999998 1.8310546875000002 0.6525878906249998 Q 1.8435058593750002 0.6284179687499998 1.8618164062500002 0.6145019531249998 Q 1.8801269531250002 0.6005859374999998 1.9017333984375002 0.5950927734374998 Q 1.9233398437500002 0.5895996093749998 1.9423828125000002 0.5895996093749998 L 2.54736328125 0.5895996093749998 Q 2.56787109375 0.5895996093749998 2.5894775390625 0.5950927734374998 Q 2.611083984375 0.6005859374999998 2.6290283203125 0.6145019531249998 Q 2.64697265625 0.6284179687499998 2.65869140625 0.6525878906249998 Q 2.67041015625 0.6767578124999998 2.67041015625 0.7148437499999998 Q 2.67041015625 0.7529296874999998 2.65869140625 0.7770996093749998 Q 2.64697265625 0.8012695312499998 2.6290283203125 0.8151855468749998 Q 2.611083984375 0.8291015624999998 2.5894775390625 0.8345947265624998 Q 2.56787109375 0.8400878906249998 2.54736328125 0.8400878906249998 L 1.9423828125000002 0.8400878906249998 Q 1.9233398437500002 0.8400878906249998 1.9017333984375002 0.8345947265624998 Q 1.8801269531250002 0.8291015624999998 1.8618164062500002 0.8151855468749998 Q 1.8435058593750002 0.8012695312499998 1.8310546875000002 0.7770996093749998 Q 1.8186035156250002 0.7529296874999998 1.8186035156250002 0.7148437499999998 M 3.3427734375 0.8562011718749998 Q 3.3427734375 0.8891601562499998 3.3515625 0.9074707031249998 Q 3.3603515625 0.9257812499999998 3.37353515625 0.9353027343749998 Q 3.38671875 0.9448242187499998 3.402099609375 0.9484863281249998 Q 3.41748046875 0.9521484374999998 3.4306640625 0.9565429687499998 Q 3.44384765625 0.9609374999999998 3.45263671875 0.9686279296874998 Q 3.46142578125 0.9763183593749998 3.46142578125 0.9938964843749998 Q 3.46142578125 1.0854492187499998 3.366943359375 1.1260986328124998 Q 3.2724609375 1.1667480468749998 3.09375 1.1667480468749998 Q 3.00732421875 1.1667480468749998 2.9403076171875 1.1568603515624998 Q 2.873291015625 1.1469726562499998 2.8275146484375 1.1260986328124998 Q 2.78173828125 1.1052246093749998 2.7579345703125 1.0722656249999998 Q 2.734130859375 1.0393066406249998 2.734130859375 0.9938964843749998 Q 2.734130859375 0.9763183593749998 2.742919921875 0.9686279296874998 Q 2.751708984375 0.9609374999999998 2.7645263671875 0.9569091796874998 Q 2.77734375 0.9528808593749998 2.7923583984375 0.9492187499999998 Q 2.807373046875 0.9455566406249998 2.8201904296875 0.9364013671874998 Q 2.8330078125 0.9272460937499998 2.841796875 0.9096679687499998 Q 2.8505859375 0.8920898437499998 2.8505859375 0.8591308593749998 L 2.8505859375 0.3068847656249998 Q 2.8505859375 0.2746582031249998 2.841796875 0.2567138671874998 Q 2.8330078125 0.23876953124999978 2.8201904296875 0.22961425781249978 Q 2.807373046875 0.22045898437499978 2.7923583984375 0.21679687499999978 Q 2.77734375 0.21313476562499978 2.7645263671875 0.20910644531249978 Q 2.751708984375 0.20507812499999978 2.742919921875 0.19738769531249978 Q 2.734130859375 0.18969726562499978 2.734130859375 0.17211914062499978 Q 2.734130859375 0.12670898437499978 2.7579345703125 0.09411621093749978 Q 2.78173828125 0.06152343749999978 2.8275146484375 0.04064941406249978 Q 2.873291015625 0.019775390624999778 2.9403076171875 0.009887695312499778 Q 3.00732421875 -2.220446049250313e-16 3.09375 -2.220446049250313e-16 Q 3.18310546875 -2.220446049250313e-16 3.251953125 0.009887695312499778 Q 3.32080078125 0.019775390624999778 3.3673095703125 0.04064941406249978 Q 3.413818359375 0.06152343749999978 3.4376220703125 0.09411621093749978 Q 3.46142578125 0.12670898437499978 3.46142578125 0.17211914062499978 Q 3.46142578125 0.18969726562499978 3.45263671875 0.19738769531249978 Q 3.44384765625 0.20507812499999978 3.4310302734375 0.20910644531249978 Q 3.418212890625 0.21313476562499978 3.40283203125 0.21679687499999978 Q 3.387451171875 0.22045898437499978 3.3746337890625 0.22961425781249978 Q 3.36181640625 0.23876953124999978 3.35302734375 0.2567138671874998 Q 3.34423828125 0.2746582031249998 3.34423828125 0.3068847656249998 L 3.3427734375 0.8562011718749998 M 4.004150390625 0.19628906249999978 Q 4.11328125 0.19628906249999978 4.1905517578125 0.22045898437499978 Q 4.267822265625 0.24462890624999978 4.3172607421875 0.2856445312499998 Q 4.36669921875 0.3266601562499998 4.389404296875 0.3815917968749998 Q 4.412109375 0.4365234374999998 4.412109375 0.4980468749999998 Q 4.412109375 0.5236816406249998 4.404052734375 0.5434570312499998 Q 4.39599609375 0.5632324218749998 4.3824462890625 0.5771484374999998 Q 4.368896484375 0.5910644531249998 4.349853515625 0.5983886718749998 Q 4.330810546875 0.6057128906249998 4.308837890625 0.6057128906249998 Q 4.289794921875 0.6057128906249998 4.27001953125 0.5991210937499998 Q 4.250244140625 0.5925292968749998 4.232666015625 0.5778808593749998 Q 4.215087890625 0.5632324218749998 4.201171875 0.5397949218749998 Q 4.187255859375 0.5163574218749998 4.179931640625 0.4826660156249998 Q 4.174072265625 0.4584960937499998 4.162353515625 0.4401855468749998 Q 4.150634765625 0.4218749999999998 4.1356201171875 0.4090576171874998 Q 4.12060546875 0.3962402343749998 4.1026611328125 0.3900146484374998 Q 4.084716796875 0.3837890624999998 4.067138671875 0.3837890624999998 Q 4.03564453125 0.3837890624999998 4.0125732421875 0.3969726562499998 Q 3.989501953125 0.4101562499999998 3.97412109375 0.4354248046874998 Q 3.958740234375 0.4606933593749998 3.951416015625 0.4969482421874998 Q 3.944091796875 0.5332031249999998 3.944091796875 0.5786132812499998 Q 3.944091796875 0.7543945312499998 3.9971923828125 0.8389892578124998 Q 4.05029296875 0.9235839843749998 4.16748046875 0.9235839843749998 Q 4.201171875 0.9235839843749998 4.236328125 0.9144287109374998 Q 4.271484375 0.9052734374999998 4.301513671875 0.8942871093749998 Q 4.33154296875 0.8833007812499998 4.353515625 0.8741455078124998 Q 4.37548828125 0.8649902343749998 4.383544921875 0.8649902343749998 Q 4.400390625 0.8649902343749998 4.409912109375 0.8792724609374998 Q 4.41943359375 0.8935546874999998 4.41943359375 0.9118652343749998 Q 4.41943359375 0.9177246093749998 4.4190673828125 0.9228515624999998 Q 4.418701171875 0.9279785156249998 4.41650390625 0.9331054687499998 Q 4.395263671875 0.9873046874999998 4.3564453125 1.0330810546874998 Q 4.317626953125 1.0788574218749998 4.2637939453125 1.1129150390624998 Q 4.2099609375 1.1469726562499998 4.141845703125 1.1660156249999998 Q 4.07373046875 1.1850585937499998 3.993896484375 1.1850585937499998 Q 3.911865234375 1.1850585937499998 3.84375 1.1656494140624998 Q 3.775634765625 1.1462402343749998 3.7210693359375 1.1114501953124998 Q 3.66650390625 1.0766601562499998 3.6258544921875 1.0297851562499998 Q 3.585205078125 0.9829101562499998 3.5577392578125 0.9276123046874998 Q 3.5302734375 0.8723144531249998 3.5167236328125 0.8118896484374998 Q 3.503173828125 0.7514648437499998 3.503173828125 0.6899414062499998 Q 3.503173828125 0.6276855468749998 3.51708984375 0.5665283203124998 Q 3.531005859375 0.5053710937499998 3.558837890625 0.4504394531249998 Q 3.586669921875 0.3955078124999998 3.62841796875 0.3489990234374998 Q 3.670166015625 0.3024902343749998 3.725830078125 0.2684326171874998 Q 3.781494140625 0.23437499999999978 3.85107421875 0.21533203124999978 Q 3.920654296875 0.19628906249999978 4.004150390625 0.19628906249999978 M 5.000244140625 1.1850585937499998 Q 4.9130859375 1.1850585937499998 4.8402099609375 1.1645507812499998 Q 4.767333984375 1.1440429687499998 4.7091064453125 1.1085205078124998 Q 4.65087890625 1.0729980468749998 4.60693359375 1.0246582031249998 Q 4.56298828125 0.9763183593749998 4.53369140625 0.9202880859374998 Q 4.50439453125 0.8642578124999998 4.48974609375 0.8034667968749998 Q 4.47509765625 0.7426757812499998 4.47509765625 0.6818847656249998 Q 4.47509765625 0.6196289062499998 4.4908447265625 0.5592041015624998 Q 4.506591796875 0.4987792968749998 4.5384521484375 0.4445800781249998 Q 4.5703125 0.3903808593749998 4.617919921875 0.3449707031249998 Q 4.66552734375 0.2995605468749998 4.7296142578125 0.2666015624999998 Q 4.793701171875 0.23364257812499978 4.8739013671875 0.21496582031249978 Q 4.9541015625 0.19628906249999978 5.05078125 0.19628906249999978 Q 5.1357421875 0.19628906249999978 5.2064208984375 0.21533203124999978 Q 5.277099609375 0.23437499999999978 5.334228515625 0.2677001953124998 Q 5.391357421875 0.3010253906249998 5.4342041015625 0.3464355468749998 Q 5.47705078125 0.3918457031249998 5.505615234375 0.4453124999999998 Q 5.5341796875 0.4987792968749998 5.5484619140625 0.5581054687499998 Q 5.562744140625 0.6174316406249998 5.562744140625 0.6774902343749998 Q 5.562744140625 0.7397460937499998 5.54736328125 0.8020019531249998 Q 5.531982421875 0.8642578124999998 5.5008544921875 0.9206542968749998 Q 5.4697265625 0.9770507812499998 5.4228515625 1.0253906249999998 Q 5.3759765625 1.0737304687499998 5.3133544921875 1.1092529296874998 Q 5.250732421875 1.1447753906249998 5.17236328125 1.1649169921874998 Q 5.093994140625 1.1850585937499998 5.000244140625 1.1850585937499998 M 5.033203125 0.9975585937499998 Q 5.057373046875 0.9975585937499998 5.0738525390625 0.9832763671874998 Q 5.09033203125 0.9689941406249998 5.1005859375 0.9418945312499998 Q 5.11083984375 0.9147949218749998 5.115234375 0.8763427734374998 Q 5.11962890625 0.8378906249999998 5.11962890625 0.7902832031249998 Q 5.11962890625 0.7485351562499998 5.118896484375 0.7020263671874998 Q 5.1181640625 0.6555175781249998 5.115234375 0.6104736328124998 Q 5.1123046875 0.5654296874999998 5.105712890625 0.5244140624999998 Q 5.09912109375 0.4833984374999998 5.0870361328125 0.4519042968749998 Q 5.074951171875 0.4204101562499998 5.056640625 0.4020996093749998 Q 5.038330078125 0.3837890624999998 5.011962890625 0.3837890624999998 Q 4.986328125 0.3837890624999998 4.9683837890625 0.3980712890624998 Q 4.950439453125 0.4123535156249998 4.938720703125 0.4379882812499998 Q 4.927001953125 0.4636230468749998 4.9215087890625 0.4995117187499998 Q 4.916015625 0.5354003906249998 4.916015625 0.5786132812499998 Q 4.916015625 0.6188964843749998 4.91748046875 0.6657714843749998 Q 4.9189453125 0.7126464843749998 4.92333984375 0.7591552734374998 Q 4.927734375 0.8056640624999998 4.9361572265625 0.8488769531249998 Q 4.944580078125 0.8920898437499998 4.9573974609375 0.9250488281249998 Q 4.97021484375 0.9580078124999998 4.9888916015625 0.9777832031249998 Q 5.007568359375 0.9975585937499998 5.033203125 0.9975585937499998 M 6.185302734375 0.8847656249999998 Q 6.185302734375 0.9147949218749998 6.193359375 0.9316406249999998 Q 6.201416015625 0.9484863281249998 6.2135009765625 0.9569091796874998 Q 6.2255859375 0.9653320312499998 6.239501953125 0.9686279296874998 Q 6.25341796875 0.9719238281249998 6.2655029296875 0.9755859374999998 Q 6.277587890625 0.9792480468749998 6.28564453125 0.9862060546874998 Q 6.293701171875 0.9931640624999998 6.293701171875 1.0092773437499998 Q 6.293701171875 1.0927734374999998 6.207275390625 1.1297607421874998 Q 6.120849609375 1.1667480468749998 5.95751953125 1.1667480468749998 Q 5.87841796875 1.1667480468749998 5.817626953125 1.1579589843749998 Q 5.7568359375 1.1491699218749998 5.715087890625 1.1297607421874998 Q 5.67333984375 1.1103515624999998 5.6517333984375 1.0806884765624998 Q 5.630126953125 1.0510253906249998 5.630126953125 1.0092773437499998 Q 5.630126953125 0.9931640624999998 5.63818359375 0.9862060546874998 Q 5.646240234375 0.9792480468749998 5.657958984375 0.9755859374999998 Q 5.669677734375 0.9719238281249998 5.68359375 0.9689941406249998 Q 5.697509765625 0.9660644531249998 5.709228515625 0.9576416015624998 Q 5.720947265625 0.9492187499999998 5.72900390625 0.9334716796874998 Q 5.737060546875 0.9177246093749998 5.737060546875 0.8876953124999998 L 5.737060546875 0.4965820312499998 Q 5.737060546875 0.4672851562499998 5.72900390625 0.4511718749999998 Q 5.720947265625 0.4350585937499998 5.709228515625 0.4266357421874998 Q 5.697509765625 0.4182128906249998 5.68359375 0.4152832031249998 Q 5.669677734375 0.4123535156249998 5.657958984375 0.4086914062499998 Q 5.646240234375 0.4050292968749998 5.63818359375 0.3980712890624998 Q 5.630126953125 0.3911132812499998 5.630126953125 0.3749999999999998 Q 5.630126953125 0.3332519531249998 5.6517333984375 0.3035888671874998 Q 5.67333984375 0.2739257812499998 5.715087890625 0.2545166015624998 Q 5.7568359375 0.23510742187499978 5.817626953125 0.22631835937499978 Q 5.87841796875 0.21752929687499978 5.95751953125 0.21752929687499978 Q 6.029296875 0.21752929687499978 6.07177734375 0.22961425781249978 Q 6.1142578125 0.24169921874999978 6.1376953125 0.2563476562499998 Q 6.164794921875 0.2739257812499998 6.175048828125 0.2951660156249998 Q 6.213134765625 0.2680664062499998 6.265869140625 0.24609374999999978 Q 6.311279296875 0.22705078124999978 6.3768310546875 0.21166992187499978 Q 6.4423828125 0.19628906249999978 6.5302734375 0.19628906249999978 Q 6.61083984375 0.19628906249999978 6.6690673828125 0.21643066406249978 Q 6.727294921875 0.23657226562499978 6.7679443359375 0.2706298828124998 Q 6.80859375 0.3046874999999998 6.83349609375 0.3497314453124998 Q 6.8583984375 0.3947753906249998 6.8719482421875 0.4438476562499998 Q 6.885498046875 0.4929199218749998 6.8902587890625 0.5430908203124998 Q 6.89501953125 0.5932617187499998 6.89501953125 0.6386718749999998 L 6.89501953125 0.8811035156249998 Q 6.89501953125 0.9118652343749998 6.903076171875 0.9290771484374998 Q 6.9111328125 0.9462890624999998 6.923583984375 0.9554443359374998 Q 6.93603515625 0.9645996093749998 6.9503173828125 0.9678955078124998 Q 6.964599609375 0.9711914062499998 6.97705078125 0.9752197265624998 Q 6.989501953125 0.9792480468749998 6.99755859375 0.9862060546874998 Q 7.005615234375 0.9931640624999998 7.005615234375 1.0092773437499998 Q 7.005615234375 1.0927734374999998 6.9195556640625 1.1297607421874998 Q 6.83349609375 1.1667480468749998 6.670166015625 1.1667480468749998 Q 6.591064453125 1.1667480468749998 6.5302734375 1.1579589843749998 Q 6.469482421875 1.1491699218749998 6.427734375 1.1297607421874998 Q 6.385986328125 1.1103515624999998 6.3643798828125 1.0806884765624998 Q 6.3427734375 1.0510253906249998 6.3427734375 1.0092773437499998 Q 6.3427734375 0.9931640624999998 6.350830078125 0.9862060546874998 Q 6.35888671875 0.9792480468749998 6.371337890625 0.9755859374999998 Q 6.3837890625 0.9719238281249998 6.397705078125 0.9689941406249998 Q 6.41162109375 0.9660644531249998 6.424072265625 0.9576416015624998 Q 6.4365234375 0.9492187499999998 6.444580078125 0.9334716796874998 Q 6.45263671875 0.9177246093749998 6.45263671875 0.8876953124999998 L 6.45263671875 0.5749511718749998 Q 6.45263671875 0.5295410156249998 6.4456787109375 0.4940185546874998 Q 6.438720703125 0.4584960937499998 6.4222412109375 0.4339599609374998 Q 6.40576171875 0.4094238281249998 6.378662109375 0.3966064453124998 Q 6.3515625 0.3837890624999998 6.311279296875 0.3837890624999998 Q 6.28564453125 0.3837890624999998 6.262939453125 0.3922119140624998 Q 6.240234375 0.4006347656249998 6.223388671875 0.4156494140624998 Q 6.20654296875 0.4306640624999998 6.1966552734375 0.4515380859374998 Q 6.186767578125 0.4724121093749998 6.186767578125 0.4965820312499998 L 6.185302734375 0.8847656249999998" fill="#ffffff" fill-rule="nonzero"></path></g><g><path d=" M 0.3751627604166667 2.05480712890625 Q 0.3934733072916667 2.05480712890625 0.3934733072916667 2.07189697265625 Q 0.3934733072916667 2.0812556966145834 0.38777669270833337 2.0873592122395834 Q 0.3336588541666667 2.14513916015625 0.23234049479166669 2.14513916015625 Q 0.13102213541666669 2.14513916015625 0.07181803385416667 2.09020751953125 Q 0.012613932291666668 2.03527587890625 0.012613932291666668 1.94494384765625 Q 0.012613932291666668 1.8859431966145832 0.04130045572916667 1.83813232421875 Q 0.06998697916666667 1.7903214518229165 0.11942545572916667 1.7634659830729165 Q 0.16886393229166669 1.7366105143229165 0.22908528645833334 1.7366105143229165 Q 0.31331380208333337 1.7366105143229165 0.35888671875 1.78014892578125 Q 0.38289388020833337 1.80334228515625 0.38289388020833337 1.8342667643229165 Q 0.38289388020833337 1.8525773111979165 0.36763509114583337 1.8651912434895832 Q 0.35237630208333337 1.87780517578125 0.3312174479166667 1.87780517578125 Q 0.31005859375 1.87780517578125 0.3006998697916667 1.87414306640625 Q 0.2978515625 1.8281632486979165 0.2817789713541667 1.8035457356770832 Q 0.26570638020833337 1.77892822265625 0.22786458333333334 1.77892822265625 Q 0.166015625 1.77892822265625 0.13081868489583334 1.8183976236979165 Q 0.09562174479166667 1.8578670247395832 0.09562174479166667 1.9245987955729167 Q 0.09562174479166667 1.99133056640625 0.14058430989583334 2.0405655924479165 Q 0.185546875 2.0898006184895834 0.25390625 2.0898006184895834 Q 0.294189453125 2.0898006184895834 0.352783203125 2.0613175455729165 Q 0.3653971354166667 2.05480712890625 0.3751627604166667 2.05480712890625 M 0.6368001302083334 2.1443253580729165 Q 0.5448404947916667 2.1443253580729165 0.48868815104166674 2.0863419596354165 Q 0.4325358072916667 2.0283585611979165 0.4325358072916667 1.9392472330729167 Q 0.4325358072916667 1.8798396809895832 0.46223958333333337 1.8334529622395832 Q 0.49194335937500006 1.7870662434895832 0.5426025390625 1.76244873046875 Q 0.59326171875 1.7378312174479165 0.655517578125 1.7378312174479165 Q 0.7450358072916667 1.7378312174479165 0.80322265625 1.79357666015625 Q 0.8614095052083334 1.8493221028645832 0.8614095052083334 1.93761962890625 Q 0.8614095052083334 1.99865478515625 0.8315022786458334 2.0460587565104165 Q 0.8015950520833334 2.0934627278645834 0.750732421875 2.11889404296875 Q 0.6998697916666667 2.1443253580729165 0.6368001302083334 2.1443253580729165 M 0.7480875651041667 2.0580623372395834 Q 0.7820638020833334 2.01696533203125 0.7820638020833334 1.94860595703125 Q 0.7820638020833334 1.88024658203125 0.7430013020833334 1.8306046549479165 Q 0.7039388020833334 1.7809627278645832 0.6427001953125 1.7809627278645832 Q 0.5814615885416667 1.7809627278645832 0.5485026041666667 1.82287353515625 Q 0.5155436197916667 1.8647843424479165 0.5155436197916667 1.93273681640625 Q 0.5155436197916667 2.0006892903645834 0.55419921875 2.04992431640625 Q 0.5928548177083334 2.0991593424479165 0.6534830729166667 2.0991593424479165 Q 0.714111328125 2.0991593424479165 0.7480875651041667 2.0580623372395834 M 1.01806640625 2.13415283203125 L 0.9830729166666666 2.1345597330729165 Q 0.9297688802083334 2.1345597330729165 0.9171549479166666 2.11828369140625 Q 0.9114583333333334 2.11095947265625 0.9114583333333334 2.10058349609375 Q 0.9114583333333334 2.09020751953125 0.9195963541666666 2.0861385091145834 Q 0.927734375 2.0820694986979165 0.9377034505208334 2.08166259765625 Q 0.9476725260416666 2.0812556966145834 0.955810546875 2.0753556315104165 Q 0.9639485677083334 2.06945556640625 0.9639485677083334 2.0564347330729165 L 0.9639485677083334 1.82409423828125 Q 0.9639485677083334 1.8004939778645832 0.9346516927083334 1.7956111653645832 Q 0.914306640625 1.79235595703125 0.9100341796875 1.7884903971354165 Q 0.90576171875 1.7846248372395832 0.90576171875 1.77465576171875 Q 0.90576171875 1.7646866861979165 0.9200032552083334 1.7565486653645832 Q 0.9440104166666666 1.7419002278645832 0.9804280598958334 1.7419002278645832 Q 1.016845703125 1.7419002278645832 1.0272216796875 1.7522762044270832 Q 1.03759765625 1.7626521809895832 1.03759765625 1.79845947265625 Q 1.0933430989583333 1.7353898111979165 1.1909993489583335 1.7353898111979165 Q 1.2703450520833335 1.7353898111979165 1.3035074869791667 1.7787247721354165 Q 1.336669921875 1.8220597330729165 1.336669921875 1.9099503580729167 L 1.336669921875 2.0564347330729165 Q 1.336669921875 2.0800349934895834 1.3629150390625 2.0814591471354165 Q 1.38916015625 2.08288330078125 1.38916015625 2.10241455078125 Q 1.38916015625 2.12438720703125 1.3639322916666667 2.1300838216145834 Q 1.34521484375 2.13415283203125 1.312255859375 2.13415283203125 L 1.2772623697916667 2.1345597330729165 Q 1.2239583333333335 2.1345597330729165 1.2113444010416667 2.11828369140625 Q 1.2056477864583335 2.11095947265625 1.2056477864583335 2.10058349609375 Q 1.2056477864583335 2.09020751953125 1.2137858072916667 2.0861385091145834 Q 1.221923828125 2.0820694986979165 1.2318929036458335 2.08166259765625 Q 1.2418619791666667 2.0812556966145834 1.25 2.0753556315104165 Q 1.2581380208333335 2.06945556640625 1.2581380208333335 2.0564347330729165 L 1.2581380208333335 1.9380265299479167 Q 1.2581380208333335 1.8623429361979165 1.2406412760416667 1.8273494466145832 Q 1.2211100260416667 1.7878800455729165 1.162109375 1.7878800455729165 Q 1.0909016927083333 1.7878800455729165 1.0652669270833333 1.8257218424479165 Q 1.041259765625 1.8615291341145832 1.041259765625 1.94006103515625 L 1.041259765625 2.0564347330729165 Q 1.041259765625 2.0800349934895834 1.0675048828125 2.0814591471354165 Q 1.09375 2.08288330078125 1.09375 2.10241455078125 Q 1.09375 2.1247941080729165 1.0689290364583333 2.1300838216145834 Q 1.051025390625 2.13415283203125 1.01806640625 2.13415283203125 M 1.571044921875 1.5864640299479165 Q 1.590576171875 1.5978572591145832 1.590576171875 1.6188126627604165 Q 1.590576171875 1.63976806640625 1.5736897786458335 1.6542130533854165 Q 1.5568033854166667 1.6686580403645832 1.5334065755208335 1.6686580403645832 Q 1.510009765625 1.6686580403645832 1.4931233723958335 1.6548234049479165 Q 1.4762369791666667 1.64098876953125 1.4762369791666667 1.62267822265625 Q 1.4762369791666667 1.60436767578125 1.4923095703125 1.58971923828125 Q 1.5083821614583335 1.57507080078125 1.5299479166666667 1.57507080078125 Q 1.551513671875 1.57507080078125 1.571044921875 1.5864640299479165 M 1.4115397135416667 2.21227783203125 Q 1.4115397135416667 2.18786376953125 1.4493815104166667 2.1789119466145834 Q 1.4652506510416667 2.1752498372395834 1.4811197916666667 2.1715877278645834 Q 1.5193684895833335 2.1626359049479165 1.5193684895833335 2.14147705078125 Q 1.5193684895833335 2.1272355143229165 1.5150960286458335 2.1101456705729165 Q 1.5108235677083335 2.0930558268229165 1.510009765625 2.0881730143229165 L 1.5059407552083335 2.06823486328125 L 1.5059407552083335 1.8379288736979165 Q 1.5059407552083335 1.80090087890625 1.47705078125 1.7980525716145832 Q 1.4742024739583335 1.7976456705729165 1.4697265625 1.79723876953125 Q 1.4652506510416667 1.7968318684895832 1.4632161458333335 1.79662841796875 Q 1.461181640625 1.7964249674479165 1.4581298828125 1.7958146158854165 Q 1.455078125 1.7952042643229165 1.4536539713541667 1.7943904622395832 Q 1.4522298177083335 1.79357666015625 1.4506022135416667 1.79235595703125 Q 1.44775390625 1.7903214518229165 1.44775390625 1.78075927734375 Q 1.44775390625 1.7711971028645832 1.4599609375 1.7610245768229165 Q 1.483154296875 1.74230712890625 1.5218098958333335 1.74230712890625 Q 1.5629069010416667 1.74230712890625 1.56982421875 1.74718994140625 Q 1.5836588541666667 1.75695556640625 1.5836588541666667 1.77282470703125 L 1.5836588541666667 2.0723038736979165 Q 1.5836588541666667 2.1581599934895834 1.5565999348958335 2.1968155924479165 Q 1.529541015625 2.23547119140625 1.4583333333333335 2.2436092122395834 Q 1.4571126302083335 2.24401611328125 1.4542643229166667 2.24401611328125 L 1.451416015625 2.24401611328125 Q 1.4115397135416667 2.24401611328125 1.4115397135416667 2.21227783203125 M 1.7875162760416667 1.9579646809895832 Q 1.7875162760416667 2.0137101236979165 1.7964680989583335 2.0367000325520834 Q 1.805419921875 2.05968994140625 1.8168131510416667 2.06945556640625 Q 1.8404134114583335 2.0898006184895834 1.8955485026041667 2.0898006184895834 Q 1.95068359375 2.0898006184895834 1.976318359375 2.06152099609375 Q 2.001953125 2.0332413736979165 2.001953125 1.96691650390625 L 2.001953125 1.8293839518229165 Q 2.001953125 1.7992732747395832 1.9722493489583335 1.79723876953125 Q 1.9486490885416667 1.79601806640625 1.9462076822916667 1.7921525065104165 Q 1.9437662760416667 1.7882869466145832 1.9437662760416667 1.7834041341145832 Q 1.9437662760416667 1.76305908203125 1.9675699869791667 1.7524796549479165 Q 1.9913736979166667 1.7419002278645832 2.0241292317708335 1.7419002278645832 Q 2.056884765625 1.7419002278645832 2.0684814453125 1.75085205078125 Q 2.080078125 1.7598038736979165 2.080078125 1.7931697591145832 L 2.080485026041667 2.05358642578125 Q 2.080485026041667 2.0812556966145834 2.109781901041667 2.0832902018229165 Q 2.130533854166667 2.0845109049479165 2.135009765625 2.0875626627604165 Q 2.1394856770833335 2.0906144205729165 2.1394856770833335 2.10180419921875 Q 2.1394856770833335 2.1129939778645834 2.1260579427083335 2.1223527018229165 Q 2.10205078125 2.1386287434895834 2.0635986328125 2.1386287434895834 Q 2.025146484375 2.1386287434895834 2.0159912109375 2.1270320638020834 Q 2.0068359375 2.1154353841145834 2.0068359375 2.0735245768229165 Q 1.9576009114583335 2.14513916015625 1.8562825520833335 2.14513916015625 Q 1.776123046875 2.14513916015625 1.7425537109375 2.1020076497395834 Q 1.708984375 2.0588761393229165 1.708984375 1.9689510091145832 L 1.708984375 1.8293839518229165 Q 1.708984375 1.7992732747395832 1.6800944010416667 1.79723876953125 Q 1.6560872395833335 1.79601806640625 1.6536458333333335 1.7921525065104165 Q 1.6512044270833335 1.7882869466145832 1.6512044270833335 1.7834041341145832 Q 1.6512044270833335 1.76305908203125 1.6748046875 1.7524796549479165 Q 1.6984049479166667 1.7419002278645832 1.7311604817708335 1.7419002278645832 Q 1.763916015625 1.7419002278645832 1.7757161458333335 1.75085205078125 Q 1.7875162760416667 1.7598038736979165 1.7875162760416667 1.7931697591145832 L 1.7875162760416667 1.9579646809895832 M 2.5655110677083335 1.8810603841145832 Q 2.5655110677083335 1.91808837890625 2.5374348958333335 1.94616455078125 Q 2.4825032552083335 2.00109619140625 2.380777994791667 2.00109619140625 Q 2.3608398437500004 2.00109619140625 2.3384602864583335 1.9972306315104167 Q 2.316080729166667 1.9933650716145832 2.3103841145833335 1.99255126953125 L 2.3103841145833335 1.9921443684895832 Q 2.279459635416667 2.01818603515625 2.279459635416667 2.03771728515625 Q 2.279459635416667 2.0556209309895834 2.2969563802083335 2.0617244466145834 Q 2.3217773437500004 2.07067626953125 2.366129557291667 2.0714900716145834 Q 2.4104817708333335 2.0723038736979165 2.4353027343750004 2.0729142252604165 Q 2.460123697916667 2.0735245768229165 2.4890136718750004 2.07555908203125 Q 2.5179036458333335 2.0775935872395834 2.5398763020833335 2.08349365234375 Q 2.5618489583333335 2.0893937174479165 2.580973307291667 2.0991593424479165 Q 2.620035807291667 2.11950439453125 2.620035807291667 2.16833251953125 Q 2.620035807291667 2.20495361328125 2.6009114583333335 2.23302978515625 Q 2.5817871093750004 2.26110595703125 2.5496419270833335 2.2773819986979165 Q 2.485758463541667 2.3103409830729165 2.3974609375000004 2.3103409830729165 Q 2.320963541666667 2.3103409830729165 2.2627766927083335 2.28918212890625 Q 2.2314453125000004 2.2777888997395834 2.2131347656250004 2.25561279296875 Q 2.1948242187500004 2.2334366861979165 2.1948242187500004 2.20251220703125 Q 2.1948242187500004 2.1447322591145834 2.2530110677083335 2.11340087890625 Q 2.2375488281250004 2.0983455403645834 2.2320556640625004 2.0849178059895834 Q 2.2265625000000004 2.0714900716145834 2.2265625000000004 2.05358642578125 Q 2.2265625000000004 2.0356827799479165 2.2298177083333335 2.0259171549479165 Q 2.233072916666667 2.0161515299479165 2.2399902343750004 2.0080135091145834 Q 2.248942057291667 1.99743408203125 2.273356119791667 1.97912353515625 Q 2.2351074218750004 1.9599991861979167 2.2149658203125004 1.9361954752604167 Q 2.1948242187500004 1.9123917643229167 2.1948242187500004 1.87597412109375 Q 2.1948242187500004 1.8395564778645832 2.211710611979167 1.8127010091145832 Q 2.2285970052083335 1.7858455403645832 2.256266276041667 1.7699763997395832 Q 2.312418619791667 1.7378312174479165 2.3815917968750004 1.7378312174479165 Q 2.4011230468750004 1.7378312174479165 2.454630533854167 1.74780029296875 Q 2.5081380208333335 1.7577693684895832 2.5146484375000004 1.7577693684895832 Q 2.5508626302083335 1.7577693684895832 2.5569661458333335 1.72155517578125 Q 2.609049479166667 1.72155517578125 2.609049479166667 1.76305908203125 Q 2.609049479166667 1.7829972330729165 2.5970458984375004 1.7945939127604165 Q 2.5850423177083335 1.8061905924479165 2.569376627604167 1.8061905924479165 Q 2.5537109375000004 1.8061905924479165 2.535807291666667 1.80456298828125 Q 2.5476074218750004 1.8147355143229165 2.556559244791667 1.83630126953125 Q 2.5655110677083335 1.8578670247395832 2.5655110677083335 1.8810603841145832 M 2.3085530598958335 1.79845947265625 Q 2.2778320312500004 1.82409423828125 2.2778320312500004 1.8660050455729165 Q 2.2778320312500004 1.9079158528645832 2.309366861979167 1.9347713216145832 Q 2.3409016927083335 1.9616267903645832 2.3864746093750004 1.9616267903645832 Q 2.432047526041667 1.9616267903645832 2.4603271484375004 1.9366023763020832 Q 2.4886067708333335 1.9115779622395832 2.4886067708333335 1.8712947591145832 Q 2.4886067708333335 1.8310115559895832 2.4578857421875004 1.8019181315104165 Q 2.427164713541667 1.77282470703125 2.383219401041667 1.77282470703125 Q 2.339274088541667 1.77282470703125 2.3085530598958335 1.79845947265625 M 2.3901367187500004 2.2627335611979165 Q 2.452799479166667 2.2627335611979165 2.4853515625000004 2.24950927734375 Q 2.5179036458333335 2.2362849934895834 2.5305175781250004 2.21899169921875 Q 2.543131510416667 2.2016984049479165 2.543131510416667 2.1776912434895834 Q 2.543131510416667 2.1276424153645834 2.3486328125000004 2.1276424153645834 Q 2.2937011718750004 2.1276424153645834 2.2937011718750004 2.1264217122395834 Q 2.2627766927083335 2.1577530924479165 2.2627766927083335 2.1862361653645834 Q 2.2627766927083335 2.2627335611979165 2.3901367187500004 2.2627335611979165 M 2.6947021484375004 1.8641739908854165 Q 2.6757812500000004 1.85217041015625 2.6757812500000004 1.8328426106770832 Q 2.6757812500000004 1.8135148111979165 2.6867675781250004 1.7964249674479165 Q 2.6977539062500004 1.7793351236979165 2.715250651041667 1.76855224609375 Q 2.7327473958333335 1.7577693684895832 2.7559407552083335 1.7504451497395832 Q 2.798258463541667 1.7370174153645832 2.847086588541667 1.7370174153645832 Q 2.9292805989583335 1.7370174153645832 2.9665120442708335 1.77343505859375 Q 3.0037434895833335 1.8098527018229165 3.0037434895833335 1.89367431640625 L 3.003336588541667 2.0137101236979165 Q 3.003336588541667 2.05724853515625 3.014322916666667 2.06823486328125 Q 3.0171712239583335 2.0710831705729165 3.0322265625000004 2.07555908203125 Q 3.0737304687500004 2.0885799153645834 3.0737304687500004 2.0954972330729165 Q 3.0737304687500004 2.1382218424479165 2.986246744791667 2.1382218424479165 Q 2.953287760416667 2.1382218424479165 2.9433186848958335 2.1235734049479165 Q 2.9333496093750004 2.1089249674479165 2.932535807291667 2.0702693684895834 Q 2.914225260416667 2.1032283528645834 2.8767903645833335 2.1235734049479165 Q 2.8393554687500004 2.14391845703125 2.7966308593750004 2.14391845703125 Q 2.7539062500000004 2.14391845703125 2.7242024739583335 2.13293212890625 Q 2.694498697916667 2.12194580078125 2.6759847005208335 2.0973282877604165 Q 2.6574707031250004 2.0727107747395834 2.6574707031250004 2.0442277018229165 Q 2.6574707031250004 2.01574462890625 2.663981119791667 1.9984513346354167 Q 2.6704915364583335 1.9811580403645832 2.6802571614583335 1.96935791015625 Q 2.6900227864583335 1.9575577799479167 2.7069091796875004 1.9481990559895832 Q 2.723795572916667 1.93884033203125 2.738444010416667 1.93334716796875 Q 2.753092447916667 1.92785400390625 2.776285807291667 1.9233780924479167 Q 2.810465494791667 1.91686767578125 2.833658854166667 1.9142228190104167 Q 2.856852213541667 1.9115779622395832 2.8576660156250004 1.9111710611979167 Q 2.8601074218750004 1.91076416015625 2.885538736979167 1.9081193033854167 Q 2.9109700520833335 1.9054744466145832 2.9256184895833335 1.89733642578125 Q 2.9256184895833335 1.8200252278645832 2.9048665364583335 1.7964249674479165 Q 2.8865559895833335 1.7760799153645832 2.844645182291667 1.7760799153645832 Q 2.8027343750000004 1.7760799153645832 2.781778971354167 1.7974422200520832 Q 2.7608235677083335 1.8188045247395832 2.7608235677083335 1.8651912434895832 L 2.7612304687500004 1.87414306640625 Q 2.7441406250000004 1.8761775716145832 2.7288818359375004 1.8761775716145832 Q 2.7136230468750004 1.8761775716145832 2.6947021484375004 1.8641739908854165 M 2.9256184895833335 1.93395751953125 Q 2.8979492187500004 1.9441300455729167 2.8631591796875004 1.94799560546875 Q 2.8283691406250004 1.9518611653645832 2.8084309895833335 1.95715087890625 Q 2.788492838541667 1.9624405924479167 2.775065104166667 1.9701717122395832 Q 2.7441406250000004 1.9880753580729167 2.7441406250000004 2.03161376953125 Q 2.7441406250000004 2.1016007486979165 2.8255208333333335 2.1016007486979165 Q 2.895914713541667 2.1016007486979165 2.9146321614583335 2.0344620768229165 Q 2.9256184895833335 1.99621337890625 2.9256184895833335 1.93395751953125 M 3.1506347656250004 1.79723876953125 L 3.125813802083334 1.7976456705729165 Q 3.110758463541667 1.7976456705729165 3.103841145833334 1.79479736328125 Q 3.0969238281250004 1.7919490559895832 3.0969238281250004 1.7827937825520832 Q 3.0969238281250004 1.7736385091145832 3.1048583984375004 1.76611083984375 Q 3.1127929687500004 1.7585831705729165 3.122965494791667 1.75451416015625 Q 3.151041666666667 1.7431209309895832 3.156534830729167 1.7351863606770832 Q 3.162027994791667 1.7272517903645832 3.173014322916667 1.7003963216145832 Q 3.200276692708334 1.6332576497395832 3.218587239583334 1.6332576497395832 Q 3.227945963541667 1.6332576497395832 3.2293701171875004 1.6533992513020832 Q 3.230794270833334 1.6735408528645832 3.230997721354167 1.6841202799479165 Q 3.2312011718750004 1.69469970703125 3.230794270833334 1.7156551106770832 Q 3.230387369791667 1.7366105143229165 3.230387369791667 1.74474853515625 L 3.327229817708334 1.7451554361979165 Q 3.341471354166667 1.7451554361979165 3.351236979166667 1.7522762044270832 Q 3.361002604166667 1.75939697265625 3.361002604166667 1.7711971028645832 Q 3.361002604166667 1.7829972330729165 3.3514404296875004 1.7895076497395832 Q 3.341878255208334 1.79601806640625 3.3276367187500004 1.79601806640625 L 3.230387369791667 1.79601806640625 L 3.2299804687500004 2.0039444986979165 Q 3.2299804687500004 2.0922420247395834 3.274332682291667 2.0922420247395834 Q 3.286539713541667 2.0922420247395834 3.3105468750000004 2.08471435546875 Q 3.334554036458334 2.0771866861979165 3.341878255208334 2.0771866861979165 Q 3.358561197916667 2.0771866861979165 3.358561197916667 2.09631103515625 Q 3.358561197916667 2.1113663736979165 3.319295247395834 2.1264217122395834 Q 3.2800292968750004 2.14147705078125 3.238728841145834 2.14147705078125 Q 3.197428385416667 2.14147705078125 3.174031575520834 2.1093318684895834 Q 3.1506347656250004 2.0771866861979165 3.1506347656250004 2.0246964518229165 L 3.1506347656250004 1.79723876953125 M 3.410237630208334 1.9429093424479167 Q 3.410237630208334 1.8513566080729165 3.467000325520834 1.79418701171875 Q 3.523763020833334 1.7370174153645832 3.611653645833334 1.7370174153645832 Q 3.681233723958334 1.7370174153645832 3.729044596354167 1.78197998046875 Q 3.7768554687500004 1.8269425455729165 3.7768554687500004 1.89489501953125 Q 3.7768554687500004 1.92785400390625 3.724772135416667 1.92785400390625 L 3.489176432291667 1.92785400390625 Q 3.4899902343750004 1.99377197265625 3.531901041666667 2.03893798828125 Q 3.573811848958334 2.08410400390625 3.6376953125000004 2.08410400390625 Q 3.680013020833334 2.08410400390625 3.719889322916667 2.0592830403645834 Q 3.741048177083334 2.04626220703125 3.7469482421875004 2.04626220703125 Q 3.752848307291667 2.04626220703125 3.7603759765625004 2.0521622721354165 Q 3.767903645833334 2.0580623372395834 3.767903645833334 2.0666072591145834 Q 3.767903645833334 2.08898681640625 3.739217122395834 2.10790771484375 Q 3.710530598958334 2.12682861328125 3.675944010416667 2.13598388671875 Q 3.6413574218750004 2.14513916015625 3.615315755208334 2.14513916015625 Q 3.5229492187500004 2.14513916015625 3.466593424479167 2.0898006184895834 Q 3.410237630208334 2.0344620768229165 3.410237630208334 1.9429093424479167 M 3.701985677083334 1.88512939453125 Q 3.7011718750000004 1.8383357747395832 3.677571614583334 1.8090388997395832 Q 3.653971354166667 1.7797420247395832 3.608601888020834 1.7797420247395832 Q 3.5632324218750004 1.7797420247395832 3.529256184895834 1.8122941080729165 Q 3.495279947916667 1.84484619140625 3.493245442708334 1.8867569986979167 L 3.588460286458334 1.8867569986979167 Q 3.651936848958334 1.8867569986979167 3.701985677083334 1.88512939453125 M 4.0191650390625 1.8641739908854165 Q 4.000244140625 1.85217041015625 4.000244140625 1.8328426106770832 Q 4.000244140625 1.8135148111979165 4.01123046875 1.7964249674479165 Q 4.022216796875 1.7793351236979165 4.039713541666667 1.76855224609375 Q 4.057210286458334 1.7577693684895832 4.080403645833334 1.7504451497395832 Q 4.122721354166667 1.7370174153645832 4.171549479166667 1.7370174153645832 Q 4.253743489583334 1.7370174153645832 4.290974934895834 1.77343505859375 Q 4.328206380208334 1.8098527018229165 4.328206380208334 1.89367431640625 L 4.327799479166667 2.0137101236979165 Q 4.327799479166667 2.05724853515625 4.338785807291667 2.06823486328125 Q 4.341634114583334 2.0710831705729165 4.356689453125 2.07555908203125 Q 4.398193359375 2.0885799153645834 4.398193359375 2.0954972330729165 Q 4.398193359375 2.1382218424479165 4.310709635416667 2.1382218424479165 Q 4.277750651041667 2.1382218424479165 4.267781575520834 2.1235734049479165 Q 4.2578125 2.1089249674479165 4.256998697916667 2.0702693684895834 Q 4.238688151041667 2.1032283528645834 4.201253255208334 2.1235734049479165 Q 4.163818359375 2.14391845703125 4.12109375 2.14391845703125 Q 4.078369140625 2.14391845703125 4.048665364583334 2.13293212890625 Q 4.018961588541667 2.12194580078125 4.000447591145834 2.0973282877604165 Q 3.9819335937500004 2.0727107747395834 3.9819335937500004 2.0442277018229165 Q 3.9819335937500004 2.01574462890625 3.988444010416667 1.9984513346354167 Q 3.9949544270833335 1.9811580403645832 4.004720052083334 1.96935791015625 Q 4.014485677083334 1.9575577799479167 4.0313720703125 1.9481990559895832 Q 4.048258463541667 1.93884033203125 4.062906901041667 1.93334716796875 Q 4.077555338541667 1.92785400390625 4.100748697916667 1.9233780924479167 Q 4.134928385416667 1.91686767578125 4.158121744791667 1.9142228190104167 Q 4.181315104166667 1.9115779622395832 4.18212890625 1.9111710611979167 Q 4.1845703125 1.91076416015625 4.210001627604167 1.9081193033854167 Q 4.235432942708334 1.9054744466145832 4.250081380208334 1.89733642578125 Q 4.250081380208334 1.8200252278645832 4.229329427083334 1.7964249674479165 Q 4.211018880208334 1.7760799153645832 4.169108072916667 1.7760799153645832 Q 4.127197265625 1.7760799153645832 4.106241861979167 1.7974422200520832 Q 4.085286458333334 1.8188045247395832 4.085286458333334 1.8651912434895832 L 4.085693359375 1.87414306640625 Q 4.068603515625 1.8761775716145832 4.0533447265625 1.8761775716145832 Q 4.0380859375 1.8761775716145832 4.0191650390625 1.8641739908854165 M 4.250081380208334 1.93395751953125 Q 4.222412109375 1.9441300455729167 4.1876220703125 1.94799560546875 Q 4.15283203125 1.9518611653645832 4.132893880208334 1.95715087890625 Q 4.112955729166667 1.9624405924479167 4.099527994791667 1.9701717122395832 Q 4.068603515625 1.9880753580729167 4.068603515625 2.03161376953125 Q 4.068603515625 2.1016007486979165 4.149983723958334 2.1016007486979165 Q 4.220377604166667 2.1016007486979165 4.239095052083334 2.0344620768229165 Q 4.250081380208334 1.99621337890625 4.250081380208334 1.93395751953125 M 5.002034505208333 2.13415283203125 L 4.967041015625 2.1345597330729165 Q 4.913736979166667 2.1345597330729165 4.901123046875 2.11828369140625 Q 4.895426432291667 2.11095947265625 4.895426432291667 2.10058349609375 Q 4.895426432291667 2.09020751953125 4.903564453125 2.0861385091145834 Q 4.911702473958333 2.0820694986979165 4.921671549479167 2.08166259765625 Q 4.931640625 2.0812556966145834 4.939778645833333 2.0753556315104165 Q 4.947916666666667 2.06945556640625 4.947916666666667 2.0564347330729165 L 4.948323567708333 1.9380265299479167 Q 4.948323567708333 1.86315673828125 4.930419921875 1.82775634765625 Q 4.910888671875 1.7878800455729165 4.849039713541667 1.7878800455729165 Q 4.783935546875 1.7878800455729165 4.757893880208333 1.82897705078125 Q 4.734293619791667 1.8672257486979165 4.734293619791667 1.94006103515625 L 4.734293619791667 2.0564347330729165 Q 4.734293619791667 2.0800349934895834 4.760538736979167 2.0814591471354165 Q 4.786783854166667 2.08288330078125 4.786783854166667 2.10241455078125 Q 4.786783854166667 2.1247941080729165 4.761962890625 2.1300838216145834 Q 4.744059244791667 2.13415283203125 4.711100260416667 2.13415283203125 L 4.676106770833333 2.1345597330729165 Q 4.622802734375 2.1345597330729165 4.610188802083333 2.11828369140625 Q 4.6044921875 2.11095947265625 4.6044921875 2.10058349609375 Q 4.6044921875 2.09020751953125 4.612630208333333 2.0861385091145834 Q 4.620768229166667 2.0820694986979165 4.6307373046875 2.08166259765625 Q 4.640706380208333 2.0812556966145834 4.648844401041667 2.0753556315104165 Q 4.656982421875 2.06945556640625 4.656982421875 2.0564347330729165 L 4.656982421875 1.6133194986979165 Q 4.656982421875 1.58971923828125 4.627685546875 1.58483642578125 Q 4.607340494791667 1.5815812174479165 4.603068033854167 1.5777156575520832 Q 4.598795572916667 1.57385009765625 4.598795572916667 1.5648982747395832 Q 4.598795572916667 1.5559464518229165 4.607340494791667 1.5486222330729165 Q 4.615885416666667 1.5412980143229165 4.629720052083333 1.5376359049479165 Q 4.654134114583333 1.53112548828125 4.684244791666667 1.53112548828125 Q 4.734700520833333 1.53112548828125 4.734700520833333 1.56164306640625 L 4.734700520833333 1.7980525716145832 Q 4.7900390625 1.7353898111979165 4.874674479166667 1.7353898111979165 Q 4.959309895833333 1.7353898111979165 4.992472330729167 1.7787247721354165 Q 5.025634765625 1.8220597330729165 5.025634765625 1.9099503580729167 L 5.025227864583333 2.0564347330729165 Q 5.025227864583333 2.0800349934895834 5.051472981770833 2.0814591471354165 Q 5.077718098958333 2.08288330078125 5.077718098958333 2.10241455078125 Q 5.077718098958333 2.1247941080729165 5.053304036458333 2.1300838216145834 Q 5.034586588541667 2.13415283203125 5.002034505208333 2.13415283203125 M 5.340983072916666 2.0507381184895834 Q 5.443929036458333 1.8330460611979165 5.443929036458333 1.8208390299479165 Q 5.443929036458333 1.8086319986979165 5.434977213541666 1.8037491861979165 Q 5.426025390625 1.7988663736979165 5.415445963541666 1.7980525716145832 Q 5.386962890625 1.7952042643229165 5.386962890625 1.78136962890625 Q 5.386962890625 1.7443416341145832 5.474446614583333 1.7443416341145832 L 5.49072265625 1.7443416341145832 Q 5.52978515625 1.7443416341145832 5.546671549479166 1.75695556640625 Q 5.563557942708333 1.7695694986979165 5.563557942708333 1.7805558268229165 Q 5.563557942708333 1.7915421549479165 5.551350911458333 1.7939835611979165 Q 5.526123046875 1.79845947265625 5.513712565104166 1.8080216471354165 Q 5.501302083333333 1.8175838216145832 5.489501953125 1.8432185872395832 Q 5.477701822916666 1.8688533528645832 5.450032552083333 1.9307023111979167 Q 5.42236328125 1.99255126953125 5.403645833333333 2.03161376953125 L 5.316162109375 2.2114640299479165 Q 5.302327473958333 2.2407609049479165 5.280558268229166 2.2600887044270834 Q 5.2587890625 2.27941650390625 5.229085286458333 2.27941650390625 Q 5.199381510416666 2.27941650390625 5.177205403645833 2.2645646158854165 Q 5.155029296875 2.2497127278645834 5.155029296875 2.22631591796875 Q 5.155029296875 2.2029191080729165 5.1690673828125 2.1892879231770834 Q 5.18310546875 2.17565673828125 5.204264322916666 2.17565673828125 Q 5.225423177083333 2.17565673828125 5.2423095703125 2.1862361653645834 Q 5.259195963541666 2.1968155924479165 5.260009765625 2.21227783203125 Q 5.292561848958333 2.1606013997395834 5.303548177083333 2.13171142578125 Q 5.286458333333333 2.0845109049479165 5.225626627604166 1.96630615234375 Q 5.164794921875 1.8481013997395832 5.158284505208333 1.83447021484375 Q 5.151774088541666 1.8208390299479165 5.1470947265625 1.81554931640625 Q 5.142415364583333 1.8102596028645832 5.135091145833333 1.8065974934895832 Q 5.127766927083333 1.8029353841145832 5.122884114583333 1.8013077799479165 Q 5.118001302083333 1.79968017578125 5.107014973958333 1.7968318684895832 Q 5.096028645833333 1.7939835611979165 5.089314778645833 1.7919490559895832 Q 5.082600911458333 1.78991455078125 5.082600911458333 1.7793351236979165 Q 5.082600911458333 1.7443416341145832 5.178629557291666 1.7443416341145832 Q 5.237630208333333 1.7443416341145832 5.254313151041666 1.7504451497395832 Q 5.286458333333333 1.76183837890625 5.286458333333333 1.7805558268229165 Q 5.286458333333333 1.7931697591145832 5.262247721354166 1.79784912109375 Q 5.238037109375 1.8025284830729165 5.238037109375 1.81554931640625 Q 5.238037109375 1.8171769205729165 5.252278645833333 1.8542049153645832 Q 5.299072265625 1.97546142578125 5.340983072916666 2.0507381184895834 M 5.946451822916666 1.9465714518229167 Q 5.946451822916666 1.8525773111979165 5.891927083333333 1.8098527018229165 Q 5.863444010416666 1.7878800455729165 5.823974609374999 1.7878800455729165 Q 5.707194010416666 1.7878800455729165 5.707194010416666 1.91930908203125 L 5.707194010416666 2.0531795247395834 Q 5.740152994791666 2.0959041341145834 5.820719401041666 2.0959041341145834 Q 5.879313151041666 2.0959041341145834 5.912882486979166 2.0537898763020834 Q 5.946451822916666 2.0116756184895834 5.946451822916666 1.9465714518229167 M 5.684000651041666 2.3009822591145834 L 5.649007161458333 2.30138916015625 Q 5.595703124999999 2.30138916015625 5.583089192708333 2.2851131184895834 Q 5.577392578124999 2.2777888997395834 5.577392578124999 2.2674129231770834 Q 5.577392578124999 2.2570369466145834 5.585530598958333 2.2529679361979165 Q 5.593668619791666 2.24889892578125 5.603637695312499 2.2484920247395834 Q 5.613606770833333 2.2480851236979165 5.621744791666666 2.24218505859375 Q 5.629882812499999 2.2362849934895834 5.629882812499999 2.22326416015625 L 5.629882812499999 1.8562394205729165 Q 5.629882812499999 1.8269425455729165 5.625610351562499 1.8157527669270832 Q 5.621337890624999 1.80456298828125 5.606282552083333 1.7988663736979165 Q 5.604654947916666 1.7980525716145832 5.590006510416666 1.79479736328125 Q 5.559488932291666 1.78747314453125 5.559488932291666 1.7744523111979165 Q 5.559488932291666 1.7427140299479165 5.641276041666666 1.7427140299479165 Q 5.675862630208333 1.7427140299479165 5.689697265624999 1.75085205078125 Q 5.703531901041666 1.7589900716145832 5.703531901041666 1.7858455403645832 Q 5.703531901041666 1.7939835611979165 5.703124999999999 1.7980525716145832 Q 5.734456380208333 1.7675349934895832 5.766194661458333 1.7516658528645832 Q 5.797932942708333 1.7357967122395832 5.847167968749999 1.7357967122395832 Q 5.896402994791666 1.7357967122395832 5.939331054687499 1.7634659830729165 Q 5.982259114583333 1.79113525390625 6.004231770833333 1.8365047200520832 Q 6.026204427083333 1.8818741861979165 6.026204427083333 1.93761962890625 Q 6.026204427083333 2.0259171549479165 5.968424479166666 2.0832902018229165 Q 5.910644531249999 2.1406632486979165 5.821533203124999 2.1406632486979165 Q 5.771484374999999 2.1406632486979165 5.707194010416666 2.1077042643229165 L 5.707194010416666 2.22326416015625 Q 5.707194010416666 2.2468644205729165 5.733439127604166 2.24828857421875 Q 5.759684244791666 2.2497127278645834 5.759684244791666 2.2692439778645834 Q 5.759684244791666 2.29162353515625 5.734863281249999 2.2969132486979165 Q 5.716959635416666 2.3009822591145834 5.684000651041666 2.3009822591145834 M 6.473388671874999 2.13415283203125 L 6.438395182291666 2.1345597330729165 Q 6.385091145833333 2.1345597330729165 6.372477213541666 2.11828369140625 Q 6.366780598958333 2.11095947265625 6.366780598958333 2.10058349609375 Q 6.366780598958333 2.09020751953125 6.374918619791666 2.0861385091145834 Q 6.383056640624999 2.0820694986979165 6.393025716145833 2.08166259765625 Q 6.402994791666666 2.0812556966145834 6.411132812499999 2.0753556315104165 Q 6.419270833333333 2.06945556640625 6.419270833333333 2.0564347330729165 L 6.419677734374999 1.9380265299479167 Q 6.419677734374999 1.86315673828125 6.401774088541666 1.82775634765625 Q 6.382242838541666 1.7878800455729165 6.320393880208333 1.7878800455729165 Q 6.255289713541666 1.7878800455729165 6.229248046874999 1.82897705078125 Q 6.205647786458333 1.8672257486979165 6.205647786458333 1.94006103515625 L 6.205647786458333 2.0564347330729165 Q 6.205647786458333 2.0800349934895834 6.231892903645833 2.0814591471354165 Q 6.258138020833333 2.08288330078125 6.258138020833333 2.10241455078125 Q 6.258138020833333 2.1247941080729165 6.233317057291666 2.1300838216145834 Q 6.215413411458333 2.13415283203125 6.182454427083333 2.13415283203125 L 6.147460937499999 2.1345597330729165 Q 6.094156901041666 2.1345597330729165 6.081542968749999 2.11828369140625 Q 6.075846354166666 2.11095947265625 6.075846354166666 2.10058349609375 Q 6.075846354166666 2.09020751953125 6.083984374999999 2.0861385091145834 Q 6.092122395833333 2.0820694986979165 6.102091471354166 2.08166259765625 Q 6.112060546874999 2.0812556966145834 6.120198567708333 2.0753556315104165 Q 6.128336588541666 2.06945556640625 6.128336588541666 2.0564347330729165 L 6.128336588541666 1.6133194986979165 Q 6.128336588541666 1.58971923828125 6.099039713541666 1.58483642578125 Q 6.078694661458333 1.5815812174479165 6.074422200520833 1.5777156575520832 Q 6.070149739583333 1.57385009765625 6.070149739583333 1.5648982747395832 Q 6.070149739583333 1.5559464518229165 6.078694661458333 1.5486222330729165 Q 6.087239583333333 1.5412980143229165 6.101074218749999 1.5376359049479165 Q 6.125488281249999 1.53112548828125 6.155598958333333 1.53112548828125 Q 6.206054687499999 1.53112548828125 6.206054687499999 1.56164306640625 L 6.206054687499999 1.7980525716145832 Q 6.261393229166666 1.7353898111979165 6.346028645833333 1.7353898111979165 Q 6.430664062499999 1.7353898111979165 6.463826497395833 1.7787247721354165 Q 6.496988932291666 1.8220597330729165 6.496988932291666 1.9099503580729167 L 6.496582031249999 2.0564347330729165 Q 6.496582031249999 2.0800349934895834 6.522827148437499 2.0814591471354165 Q 6.549072265624999 2.08288330078125 6.549072265624999 2.10241455078125 Q 6.549072265624999 2.1247941080729165 6.524658203124999 2.1300838216145834 Q 6.505940755208333 2.13415283203125 6.473388671874999 2.13415283203125 M 6.585286458333332 1.9429093424479167 Q 6.585286458333332 1.8513566080729165 6.642049153645832 1.79418701171875 Q 6.698811848958332 1.7370174153645832 6.786702473958332 1.7370174153645832 Q 6.856282552083332 1.7370174153645832 6.904093424479166 1.78197998046875 Q 6.951904296874999 1.8269425455729165 6.951904296874999 1.89489501953125 Q 6.951904296874999 1.92785400390625 6.899820963541666 1.92785400390625 L 6.664225260416666 1.92785400390625 Q 6.665039062499999 1.99377197265625 6.706949869791666 2.03893798828125 Q 6.748860677083332 2.08410400390625 6.812744140624999 2.08410400390625 Q 6.855061848958332 2.08410400390625 6.894938151041666 2.0592830403645834 Q 6.916097005208332 2.04626220703125 6.921997070312499 2.04626220703125 Q 6.927897135416666 2.04626220703125 6.935424804687499 2.0521622721354165 Q 6.942952473958332 2.0580623372395834 6.942952473958332 2.0666072591145834 Q 6.942952473958332 2.08898681640625 6.914265950520832 2.10790771484375 Q 6.885579427083332 2.12682861328125 6.850992838541666 2.13598388671875 Q 6.816406249999999 2.14513916015625 6.790364583333332 2.14513916015625 Q 6.697998046874999 2.14513916015625 6.641642252604166 2.0898006184895834 Q 6.585286458333332 2.0344620768229165 6.585286458333332 1.9429093424479167 M 6.877034505208332 1.88512939453125 Q 6.876220703124999 1.8383357747395832 6.852620442708332 1.8090388997395832 Q 6.829020182291666 1.7797420247395832 6.783650716145832 1.7797420247395832 Q 6.738281249999999 1.7797420247395832 6.704305013020832 1.8122941080729165 Q 6.670328776041666 1.84484619140625 6.668294270833332 1.8867569986979167 L 6.763509114583332 1.8867569986979167 Q 6.826985677083332 1.8867569986979167 6.877034505208332 1.88512939453125 M 7.119547526041666 2.13415283203125 L 7.084554036458333 2.1345597330729165 Q 7.031249999999999 2.1345597330729165 7.018636067708333 2.11828369140625 Q 7.012939453124999 2.11095947265625 7.012939453124999 2.10058349609375 Q 7.012939453124999 2.09020751953125 7.021077473958333 2.0861385091145834 Q 7.029215494791666 2.0820694986979165 7.039184570312499 2.08166259765625 Q 7.049153645833333 2.0812556966145834 7.057291666666666 2.0753556315104165 Q 7.065429687499999 2.06945556640625 7.065429687499999 2.0564347330729165 L 7.065429687499999 1.82409423828125 Q 7.065429687499999 1.8004939778645832 7.036132812499999 1.7956111653645832 Q 7.015787760416666 1.79235595703125 7.011515299479166 1.7884903971354165 Q 7.007242838541666 1.7846248372395832 7.007242838541666 1.77465576171875 Q 7.007242838541666 1.7646866861979165 7.021484374999999 1.7565486653645832 Q 7.045491536458333 1.7419002278645832 7.081909179687499 1.7419002278645832 Q 7.118326822916666 1.7419002278645832 7.128702799479166 1.7522762044270832 Q 7.139078776041666 1.7626521809895832 7.139078776041666 1.79845947265625 Q 7.194824218749999 1.7353898111979165 7.292480468749999 1.7353898111979165 Q 7.371826171874999 1.7353898111979165 7.404988606770833 1.7787247721354165 Q 7.438151041666666 1.8220597330729165 7.438151041666666 1.9099503580729167 L 7.438151041666666 2.0564347330729165 Q 7.438151041666666 2.0800349934895834 7.464396158854166 2.0814591471354165 Q 7.490641276041666 2.08288330078125 7.490641276041666 2.10241455078125 Q 7.490641276041666 2.12438720703125 7.465413411458333 2.1300838216145834 Q 7.446695963541666 2.13415283203125 7.413736979166666 2.13415283203125 L 7.378743489583333 2.1345597330729165 Q 7.325439453124999 2.1345597330729165 7.312825520833333 2.11828369140625 Q 7.307128906249999 2.11095947265625 7.307128906249999 2.10058349609375 Q 7.307128906249999 2.09020751953125 7.315266927083333 2.0861385091145834 Q 7.323404947916666 2.0820694986979165 7.333374023437499 2.08166259765625 Q 7.343343098958333 2.0812556966145834 7.351481119791666 2.0753556315104165 Q 7.359619140624999 2.06945556640625 7.359619140624999 2.0564347330729165 L 7.359619140624999 1.9380265299479167 Q 7.359619140624999 1.8623429361979165 7.342122395833333 1.8273494466145832 Q 7.322591145833333 1.7878800455729165 7.263590494791666 1.7878800455729165 Q 7.192382812499999 1.7878800455729165 7.166748046874999 1.8257218424479165 Q 7.142740885416666 1.8615291341145832 7.142740885416666 1.94006103515625 L 7.142740885416666 2.0564347330729165 Q 7.142740885416666 2.0800349934895834 7.168986002604166 2.0814591471354165 Q 7.195231119791666 2.08288330078125 7.195231119791666 2.10241455078125 Q 7.195231119791666 2.1247941080729165 7.170410156249999 2.1300838216145834 Q 7.152506510416666 2.13415283203125 7.119547526041666 2.13415283203125" fill="#ffffff" fill-rule="nonzero"></path></g></g><defs><clipPath id="SvgjsClipPath30888"><path d=" M 0.9283642815830593 -5.907919874333881 h 5.657919874333881 v 5.657919874333881 h -5.657919874333881 Z"></path></clipPath><clipPath id="SvgjsClipPath30883a3287870-3c19-4fe8-adde-c5ce032efcac"><path d=" M 0.9283642815830593 -5.907919874333881 L 6.586284155916941 -5.907919874333881 L 6.586284155916941 -0.25 L 0.9283642815830593 -0.25 Z"></path></clipPath></defs></svg>